<svg xmlns="http://www.w3.org/2000/svg" viewBox="0 0 1320 900" width="1320" height="900" role="img">
  <defs>
    <linearGradient id="plate" x1="0" y1="0" x2="1" y2="1">
      <stop offset="0" stop-color="#2b5f7e"/>
      <stop offset="1" stop-color="#114564"/>
    </linearGradient>
    <pattern id="grid" width="44" height="44" patternUnits="userSpaceOnUse">
      <path d="M44 0H0v44" fill="none" stroke="#ffffff" stroke-opacity=".07" stroke-width="1"/>
    </pattern>
    <filter id="lift" x="-12%" y="-12%" width="124%" height="124%">
      <feDropShadow dx="0" dy="14" stdDeviation="20" flood-color="#000" flood-opacity=".22"/>
    </filter>
  </defs>

  <rect width="1320" height="900" fill="url(#plate)"/>
  <rect width="1320" height="900" fill="url(#grid)"/>
  <circle cx="1200" cy="130" r="230" fill="#7fd4f5" fill-opacity=".14"/>

  
  <rect x="84" y="118" width="740" height="684" rx="18" fill="#faf8f4" filter="url(#lift)"/>
  <rect x="124" y="162" width="168" height="16" rx="4" fill="#1b1b17"/>
  <rect x="124" y="192" width="236" height="11" rx="4" fill="#8f8b81"/>
  <!-- severity legend -->
  <rect x="600" y="158" width="184" height="30" rx="15" fill="#f1eee7"/>
  <circle cx="622" cy="173" r="5" fill="#d94f3d"/>
  <rect x="636" y="167" width="34" height="10" rx="4" fill="#8f8b81"/>
  <circle cx="686" cy="173" r="5" fill="#e0a23c"/>
  <rect x="700" y="167" width="34" height="10" rx="4" fill="#8f8b81"/>

  <rect x="124" y="226" width="660" height="1" rx="0" fill="#e3ded4"/>

  <rect x="124" y="250" width="660" height="72" rx="12" fill="#f4f0e9"/>
      <rect x="140" y="266" width="5" height="40" rx="2" fill="#d94f3d"/>
      <rect x="164" y="268" width="300" height="13" rx="4" fill="#1b1b17"/>
      <rect x="164" y="294" width="240" height="10" rx="4" fill="#8f8b81"/>
      <rect x="660" y="274" width="108" height="26" rx="13" fill="#ece8e0"/>
      <rect x="124" y="330" width="660" height="1" rx="0" fill="#e3ded4"/><rect x="124" y="338" width="660" height="72" rx="12" fill="transparent"/>
      <rect x="140" y="354" width="5" height="40" rx="2" fill="#d94f3d"/>
      <rect x="164" y="356" width="250" height="13" rx="4" fill="#1b1b17"/>
      <rect x="164" y="382" width="190" height="10" rx="4" fill="#8f8b81"/>
      <rect x="660" y="362" width="108" height="26" rx="13" fill="#ece8e0"/>
      <rect x="124" y="418" width="660" height="1" rx="0" fill="#e3ded4"/><rect x="124" y="426" width="660" height="72" rx="12" fill="transparent"/>
      <rect x="140" y="442" width="5" height="40" rx="2" fill="#e0a23c"/>
      <rect x="164" y="444" width="330" height="13" rx="4" fill="#1b1b17"/>
      <rect x="164" y="470" width="270" height="10" rx="4" fill="#8f8b81"/>
      <rect x="660" y="450" width="108" height="26" rx="13" fill="#ece8e0"/>
      <rect x="124" y="506" width="660" height="1" rx="0" fill="#e3ded4"/><rect x="124" y="514" width="660" height="72" rx="12" fill="transparent"/>
      <rect x="140" y="530" width="5" height="40" rx="2" fill="#e0a23c"/>
      <rect x="164" y="532" width="220" height="13" rx="4" fill="#1b1b17"/>
      <rect x="164" y="558" width="160" height="10" rx="4" fill="#8f8b81"/>
      <rect x="660" y="538" width="108" height="26" rx="13" fill="#ece8e0"/>
      <rect x="124" y="594" width="660" height="1" rx="0" fill="#e3ded4"/><rect x="124" y="602" width="660" height="72" rx="12" fill="transparent"/>
      <rect x="140" y="618" width="5" height="40" rx="2" fill="#8f8b81"/>
      <rect x="164" y="620" width="290" height="13" rx="4" fill="#1b1b17"/>
      <rect x="164" y="646" width="230" height="10" rx="4" fill="#8f8b81"/>
      <rect x="660" y="626" width="108" height="26" rx="13" fill="#ece8e0"/>
      <rect x="124" y="682" width="660" height="1" rx="0" fill="#e3ded4"/><rect x="124" y="690" width="660" height="72" rx="12" fill="transparent"/>
      <rect x="140" y="706" width="5" height="40" rx="2" fill="#8f8b81"/>
      <rect x="164" y="708" width="260" height="13" rx="4" fill="#1b1b17"/>
      <rect x="164" y="734" width="200" height="10" rx="4" fill="#8f8b81"/>
      <rect x="660" y="714" width="108" height="26" rx="13" fill="#ece8e0"/>
      <rect x="124" y="770" width="660" height="1" rx="0" fill="#e3ded4"/>

  <!-- in-place detail panel -->
  <rect x="792" y="214" width="444" height="520" rx="22" fill="#faf8f4" filter="url(#lift)"/>
  <rect x="832" y="258" width="148" height="15" rx="4" fill="#1b1b17"/>
  <rect x="832" y="288" width="268" height="11" rx="4" fill="#8f8b81"/>
  <rect x="832" y="324" width="372" height="1" rx="0" fill="#e3ded4"/>
  <!-- route timeline -->
  <circle cx="852" cy="360" r="9" fill="#2b5f7e"/>
      <line x1="852" y1="372" x2="852" y2="422" stroke="#e3ded4" stroke-width="2"/>
      <rect x="878" y="348" width="190" height="12" rx="4" fill="#1b1b17"/>
      <rect x="878" y="368" width="132" height="10" rx="4" fill="#8f8b81"/><circle cx="852" cy="434" r="9" fill="#2b5f7e"/>
      <line x1="852" y1="446" x2="852" y2="496" stroke="#e3ded4" stroke-width="2"/>
      <rect x="878" y="422" width="190" height="12" rx="4" fill="#1b1b17"/>
      <rect x="878" y="442" width="132" height="10" rx="4" fill="#8f8b81"/><circle cx="852" cy="508" r="9" fill="#ded9cf"/>
      <line x1="852" y1="520" x2="852" y2="570" stroke="#e3ded4" stroke-width="2"/>
      <rect x="878" y="496" width="190" height="12" rx="4" fill="#1b1b17"/>
      <rect x="878" y="516" width="132" height="10" rx="4" fill="#8f8b81"/><circle cx="852" cy="582" r="9" fill="#ded9cf"/>
      
      <rect x="878" y="570" width="190" height="12" rx="4" fill="#1b1b17"/>
      <rect x="878" y="590" width="132" height="10" rx="4" fill="#8f8b81"/>
  <rect x="832" y="664" width="372" height="1" rx="0" fill="#e3ded4"/>
  <rect x="832" y="690" width="180" height="44" rx="22" fill="#2b5f7e"/>
  <rect x="872" y="706" width="100" height="12" rx="4" fill="#ffffff"/>

</svg>
